<mxfile host="app.diagrams.net" modified="2025-02-05T13:41:28.854Z" agent="Mozilla/5.0 (Macintosh; Intel Mac OS X 10_15_7) AppleWebKit/537.36 (KHTML, like Gecko) Chrome/131.0.0.0 Safari/537.36" version="24.6.4" etag="eL3cjNf9c5z_T5mpnEea" type="github">
  <diagram name="Page-1" id="qXZ32WRgcuBcKjFm8Xdu">
    <mxGraphModel>
      <root>
        <mxCell id="0" />
        <mxCell id="1" parent="0" />
      </root>
    </mxGraphModel>
  </diagram>
</mxfile>
